<?xml version="1.0" encoding="utf-8"?>
<!-- Generator: Adobe Illustrator 20.1.0, SVG Export Plug-In . SVG Version: 6.00 Build 0)  -->
<svg version="1.1" id="Capa_1" xmlns="http://www.w3.org/2000/svg" xmlns:xlink="http://www.w3.org/1999/xlink" x="0px" y="0px"
	 viewBox="0 0 38 38" style="enable-background:new 0 0 38 38;" xml:space="preserve">
<style type="text/css">
	.st0{fill:#E10716;}
	.st1{fill:#FFFFFF;}
</style>
<title>icono_youtube-01</title>
<circle class="st0" cx="18.9" cy="18.8" r="17.9"/>
<path class="st1" d="M27.7,15.1c0.1-1.5-1.1-2.7-2.6-2.8c-1.9-0.1-3.9-0.1-5.9-0.1h-0.6c-2,0-4,0-5.9,0.1c-1.5,0.1-2.6,1.3-2.6,2.8
	C10,16.4,10,17.6,10,18.8c0,1.2,0,2.4,0.1,3.7c-0.1,1.5,1.1,2.8,2.6,2.8c2,0.1,4.1,0.1,6.2,0.1s4.2,0,6.2-0.1
	c1.5-0.1,2.6-1.3,2.6-2.8c0.1-1.2,0.1-2.5,0.1-3.7C27.8,17.6,27.8,16.3,27.7,15.1 M17.2,22.2v-6.8l5,3.4L17.2,22.2z"/>
</svg>
