<?xml version="1.0" encoding="utf-8"?>
<!-- Generator: Adobe Illustrator 20.1.0, SVG Export Plug-In . SVG Version: 6.00 Build 0)  -->
<svg version="1.1" id="Capa_1" xmlns="http://www.w3.org/2000/svg" xmlns:xlink="http://www.w3.org/1999/xlink" x="0px" y="0px"
	 viewBox="0 0 38 38" style="enable-background:new 0 0 38 38;" xml:space="preserve">
<style type="text/css">
	.st0{fill:#3DBEEF;}
	.st1{fill:#FFFFFF;}
</style>
<title>icono_twiitter-01</title>
<ellipse class="st0" cx="18.8" cy="18.9" rx="17.8" ry="17.9"/>
<path class="st1" d="M27.6,13.4c-0.1,0.7-1,1.3-1.6,1.8c0.6,8.4-8.9,13.7-15.9,9.4c1.9,0.1,3.8-0.5,5.3-1.6
	c-1.5-0.1-2.8-1.1-3.3-2.5c0.5,0,1.2,0.1,1.5-0.1c-1.5-0.6-2.8-1.5-2.8-3.5c0.6,0.1,0.8,0.4,1.5,0.3c-1.4-1.2-1.9-3.2-1.1-4.9
	c1.9,2.3,4.6,3.7,7.6,3.9c-0.9-3.7,4-6,6.3-3.3c0.8-0.2,1.6-0.4,2.3-0.8c-0.3,0.8-0.9,1.4-1.5,1.9C26.4,13.9,27,13.7,27.6,13.4"/>
</svg>
