<?xml version="1.0" encoding="utf-8"?>
<!-- Generator: Adobe Illustrator 20.1.0, SVG Export Plug-In . SVG Version: 6.00 Build 0)  -->
<svg version="1.1" id="Capa_1" xmlns="http://www.w3.org/2000/svg" xmlns:xlink="http://www.w3.org/1999/xlink" x="0px" y="0px"
	 viewBox="0 0 38 38" style="enable-background:new 0 0 38 38;" xml:space="preserve">
<style type="text/css">
	.st0{fill:#E10716;}
	.st1{fill:#FFFFFF;}
	.st2{clip-path:url(#SVGID_2_);}
	.st3{clip-path:url(#SVGID_4_);}
</style>
<title>icono_google_mas</title>
<circle class="st0" cx="19" cy="19" r="18"/>
<path class="st1" d="M15.3,18.1v2.2H19c-0.4,1.7-1.9,2.9-3.7,2.7c-2.2,0-4.1-1.8-4.1-4s1.8-4.1,4.1-4.1c1,0,1.9,0.3,2.6,1l1.7-1.7
	c-1.2-1.1-2.7-1.7-4.3-1.7c-3.5,0-6.4,2.9-6.4,6.4s2.9,6.4,6.4,6.4c3.3,0.1,6-2.4,6.2-5.6c0-0.2,0-0.4,0-0.6c0-0.4,0-0.7-0.1-1.1
	L15.3,18.1z"/>
<g>
	<defs>
		<path id="SVGID_1_" d="M15.3,18.1v2.2H19c-0.4,1.7-1.9,2.9-3.7,2.7c-2.2,0-4.1-1.8-4.1-4s1.8-4.1,4.1-4.1c1,0,1.9,0.3,2.6,1
			l1.7-1.7c-1.2-1.1-2.7-1.7-4.3-1.7c-3.5,0-6.4,2.9-6.4,6.4s2.9,6.4,6.4,6.4c3.3,0.1,6-2.4,6.2-5.6c0-0.2,0-0.4,0-0.6
			c0-0.4,0-0.7-0.1-1.1L15.3,18.1z"/>
	</defs>
	<clipPath id="SVGID_2_">
		<use xlink:href="#SVGID_1_"  style="overflow:visible;"/>
	</clipPath>
	<g class="st2">
		<rect x="4.3" y="8" class="st1" width="21.7" height="22"/>
	</g>
</g>
<polyline class="st1" points="29.1,18.1 27.2,18.1 27.2,16.2 25.4,16.2 25.4,18.1 23.6,18.1 23.6,19.9 25.4,19.9 25.4,21.7 
	27.2,21.7 27.2,19.9 29.1,19.9 "/>
<g>
	<defs>
		<polyline id="SVGID_3_" points="29.1,18.1 27.2,18.1 27.2,16.2 25.4,16.2 25.4,18.1 23.6,18.1 23.6,19.9 25.4,19.9 25.4,21.7 
			27.2,21.7 27.2,19.9 29.1,19.9 		"/>
	</defs>
	<clipPath id="SVGID_4_">
		<use xlink:href="#SVGID_3_"  style="overflow:visible;"/>
	</clipPath>
	<g class="st3">
		<rect x="19" y="11.6" class="st1" width="14.7" height="14.6"/>
	</g>
</g>
</svg>
